<svg width="24" height="24" viewBox="0 0 24 24" fill="none" xmlns="http://www.w3.org/2000/svg">
<rect width="24" height="24" rx="6" fill="white"/>
<path fill-rule="evenodd" clip-rule="evenodd" d="M19.6506 9.05347C21.5584 10.1266 21.5584 12.8734 19.6506 13.9465L8.18319 20.397C6.31202 21.4495 4 20.0973 4 17.9504V5.04957C4 2.90269 6.31202 1.55051 8.18319 2.60304L19.6506 9.05347Z" fill="url(#paint0_linear_319_15495)"/>
<mask id="mask0_319_15495" style="mask-type:luminance" maskUnits="userSpaceOnUse" x="4" y="2" width="18" height="19">
<path fill-rule="evenodd" clip-rule="evenodd" d="M19.6506 9.05347C21.5584 10.1266 21.5584 12.8734 19.6506 13.9465L8.18319 20.397C6.31202 21.4495 4 20.0973 4 17.9504V5.04957C4 2.90269 6.31202 1.55051 8.18319 2.60304L19.6506 9.05347Z" fill="white"/>
</mask>
<g mask="url(#mask0_319_15495)">
<path fill-rule="evenodd" clip-rule="evenodd" d="M-0.299927 16.568L20.7683 4.86804L24.6149 11.2766L3.54673 22.9766L-0.299927 16.568Z" fill="url(#paint1_linear_319_15495)"/>
<g filter="url(#filter0_d_319_15495)">
<path fill-rule="evenodd" clip-rule="evenodd" d="M-3.1283 11.7671L17.9399 0.0671387L21.7866 6.47573L0.718358 18.1757L-3.1283 11.7671Z" fill="url(#paint2_linear_319_15495)"/>
</g>
<path fill-rule="evenodd" clip-rule="evenodd" d="M-5.57397 7.25061L15.4942 -4.44939L19.3409 1.9592L-1.72732 13.6592L-5.57397 7.25061Z" fill="url(#paint3_linear_319_15495)"/>
</g>
<path fill-rule="evenodd" clip-rule="evenodd" d="M5.28634 3.39978C5.09256 3.39978 4.93546 3.55687 4.93546 3.75066V4.6239C4.93546 4.81769 5.09256 4.97478 5.28634 4.97478H5.52026C5.71404 4.97478 5.87114 4.81769 5.87114 4.6239V3.75066C5.87114 3.55687 5.71404 3.39978 5.52026 3.39978H5.28634ZM5.28638 6.32481C5.0926 6.32481 4.9355 6.4819 4.9355 6.67569V7.54893C4.9355 7.74272 5.0926 7.89981 5.28638 7.89981H5.5203C5.71408 7.89981 5.87118 7.74272 5.87118 7.54893V6.67569C5.87118 6.4819 5.71408 6.32481 5.5203 6.32481H5.28638ZM4.9355 9.60063C4.9355 9.40685 5.0926 9.24976 5.28638 9.24976H5.5203C5.71408 9.24976 5.87118 9.40685 5.87118 9.60063V10.4739C5.87118 10.6677 5.71408 10.8248 5.5203 10.8248H5.28638C5.0926 10.8248 4.9355 10.6677 4.9355 10.4739V9.60063ZM5.28638 12.1748C5.0926 12.1748 4.9355 12.3319 4.9355 12.5257V13.3989C4.9355 13.5927 5.0926 13.7498 5.28638 13.7498H5.5203C5.71408 13.7498 5.87118 13.5927 5.87118 13.3989V12.5257C5.87118 12.3319 5.71408 12.1748 5.5203 12.1748H5.28638ZM4.9355 15.4507C4.9355 15.2569 5.0926 15.0998 5.28638 15.0998H5.5203C5.71408 15.0998 5.87118 15.2569 5.87118 15.4507V16.3239C5.87118 16.5177 5.71408 16.6748 5.5203 16.6748H5.28638C5.0926 16.6748 4.9355 16.5177 4.9355 16.3239V15.4507ZM5.28638 18.0248C5.0926 18.0248 4.9355 18.1819 4.9355 18.3757V19.2489C4.9355 19.4427 5.0926 19.5998 5.28638 19.5998H5.5203C5.71408 19.5998 5.87118 19.4427 5.87118 19.2489V18.3757C5.87118 18.1819 5.71408 18.0248 5.5203 18.0248H5.28638Z" fill="#00351E"/>
<mask id="mask1_319_15495" style="mask-type:luminance" maskUnits="userSpaceOnUse" x="4" y="2" width="20" height="21">
<path fill-rule="evenodd" clip-rule="evenodd" d="M21.8618 10.2973C23.0864 10.9861 23.6125 12.4724 23.0201 13.7464C21.9305 16.0894 20.1107 19.5459 18.4924 20.4562C16.7891 21.4143 10.7296 22.1279 7.00652 22.488C5.38272 22.645 4 21.3603 4 19.729V5.04957C4 2.90269 6.31202 1.55051 8.18319 2.60304L21.8618 10.2973Z" fill="white"/>
</mask>
<g mask="url(#mask1_319_15495)">
<path opacity="0.1" fill-rule="evenodd" clip-rule="evenodd" d="M6.18206 2.25134C6.21577 2.25329 6.24841 2.25493 6.28005 2.2563C6.24105 2.25273 6.20799 2.25134 6.18206 2.25134ZM13.1747 11.8556V5.40286C12.9153 5.25133 11.8793 4.66957 10.6685 3.98959C9.95238 3.58742 9.17506 3.15089 8.46102 2.74869C7.5593 2.24078 7.32883 2.24634 6.83584 2.25824C6.68438 2.2619 6.50814 2.26615 6.28005 2.2563C6.76792 2.30094 8.18448 2.68719 8.18448 4.97452V11.8556H6.17108C5.95911 11.8556 5.82817 12.0868 5.93718 12.2686L10.6798 20.1767L15.4223 12.2686C15.5313 12.0868 15.4004 11.8556 15.1884 11.8556H13.1747Z" fill="black"/>
<g filter="url(#filter1_d_319_15495)">
<path fill-rule="evenodd" clip-rule="evenodd" d="M8.86086 2.97807C7.96798 2.46457 7.56385 2.23215 6.61753 2.26034C7.28314 2.26034 9.0859 2.6835 9.0164 5.33682V11.2564H6.84576C6.70368 11.2564 6.6165 11.412 6.69072 11.5332L11.5114 19.4017L16.3321 11.5332C16.4063 11.412 16.3191 11.2564 16.177 11.2564H14.0067V6.59289V6.36334C14.0067 6.06393 13.8458 5.78764 13.5853 5.64008C13.2698 5.46137 12.8487 5.22314 12.5847 5.07468C12.2539 4.88874 11.886 4.68211 11.5003 4.46552C10.7842 4.06337 10.0069 3.62687 9.29294 3.22471C9.13597 3.13629 8.99306 3.0541 8.86086 2.97807Z" fill="url(#paint4_linear_319_15495)"/>
</g>
<mask id="path-11-outside-1_319_15495" maskUnits="userSpaceOnUse" x="5.47471" y="0.868774" width="12" height="20" fill="black">
<rect fill="white" x="5.47471" y="0.868774" width="12" height="20"/>
<path fill-rule="evenodd" clip-rule="evenodd" d="M8.33333 2.6099C7.70572 2.17719 7.22743 1.84743 6.47471 1.86985C7.14032 1.86985 9.086 2.68318 9.0165 5.3365V11.256H6.84576C6.70368 11.256 6.6165 11.4117 6.69072 11.5328L11.5114 19.4013L16.3321 11.5328C16.4063 11.4117 16.3191 11.256 16.177 11.256H14.0068V6.59257V6.36303C14.0068 6.06362 13.8459 5.78733 13.5854 5.63977C13.2699 5.46106 12.8489 5.22282 12.5848 5.07437C12.254 4.88844 11.8861 4.68181 11.5004 4.46523C10.7843 4.06307 10.007 3.62657 9.29304 3.22439C8.91917 3.0138 8.61158 2.80173 8.33333 2.6099Z"/>
</mask>
<path d="M6.47471 1.86985L6.46233 1.45418L6.47471 2.28571V1.86985ZM8.33333 2.6099L8.56938 2.26753L8.33333 2.6099ZM9.0165 5.3365L8.60064 5.32561V5.3365H9.0165ZM9.0165 11.256V11.6719H9.43235V11.256H9.0165ZM6.69072 11.5328L6.33612 11.7501H6.33612L6.69072 11.5328ZM11.5114 19.4013L11.1568 19.6186L11.5114 20.1974L11.866 19.6186L11.5114 19.4013ZM16.3321 11.5328L15.9775 11.3156L15.9775 11.3156L16.3321 11.5328ZM14.0068 11.256H13.5909V11.6719H14.0068V11.256ZM13.5854 5.63977L13.3805 6.00161V6.00161L13.5854 5.63977ZM12.5848 5.07437L12.381 5.43687L12.5848 5.07437ZM11.5004 4.46523L11.2968 4.82782L11.5004 4.46523ZM9.29304 3.22439L9.49713 2.86206V2.86206L9.29304 3.22439ZM6.48709 2.28552C7.08655 2.26767 7.45956 2.51259 8.09729 2.95227L8.56938 2.26753C7.95187 1.84179 7.3683 1.4272 6.46233 1.45418L6.48709 2.28552ZM9.43221 5.34739C9.46996 3.90611 8.95627 2.92528 8.30828 2.30725C7.68053 1.70853 6.92812 1.454 6.47471 1.454V2.28571C6.68691 2.28571 7.24014 2.43784 7.73426 2.90911C8.20814 3.36108 8.63253 4.11358 8.60079 5.32561L9.43221 5.34739ZM9.43235 11.256V5.3365H8.60064V11.256H9.43235ZM9.0165 10.8402H6.84576V11.6719H9.0165V10.8402ZM6.84576 10.8402C6.37872 10.8402 6.09213 11.3518 6.33612 11.7501L7.04532 11.3156C7.14086 11.4715 7.02864 11.6719 6.84576 11.6719V10.8402ZM6.33612 11.7501L11.1568 19.6186L11.866 19.1841L7.04532 11.3156L6.33612 11.7501ZM11.866 19.6186L16.6867 11.7501L15.9775 11.3156L11.1568 19.1841L11.866 19.6186ZM16.6867 11.7501C16.9306 11.3518 16.6441 10.8402 16.177 10.8402V11.6719C15.9941 11.6719 15.8819 11.4715 15.9775 11.3156L16.6867 11.7501ZM16.177 10.8402H14.0068V11.6719H16.177V10.8402ZM13.5909 6.59257V11.256H14.4226V6.59257H13.5909ZM13.5909 6.36303V6.59257H14.4226V6.36303H13.5909ZM13.3805 6.00161C13.5105 6.07525 13.5909 6.21321 13.5909 6.36303H14.4226C14.4226 5.91403 14.1814 5.49941 13.7904 5.27792L13.3805 6.00161ZM12.381 5.43687C12.6444 5.58495 13.0649 5.82286 13.3805 6.00161L13.7904 5.27792C13.4749 5.09925 13.0533 4.8607 12.7886 4.71186L12.381 5.43687ZM11.2968 4.82782C11.6825 5.04442 12.0503 5.25099 12.381 5.43687L12.7886 4.71186C12.4577 4.52588 12.0897 4.31921 11.7041 4.10264L11.2968 4.82782ZM9.08895 3.58672C9.80322 3.98905 10.5807 4.42569 11.2968 4.82782L11.7041 4.10264C10.9879 3.70046 10.2109 3.26408 9.49713 2.86206L9.08895 3.58672ZM8.09729 2.95227C8.37495 3.14371 8.69669 3.36577 9.08895 3.58672L9.49713 2.86206C9.14165 2.66183 8.8482 2.45976 8.56938 2.26753L8.09729 2.95227Z" fill="#CCFFF0" mask="url(#path-11-outside-1_319_15495)"/>
</g>
<defs>
<filter id="filter0_d_319_15495" x="-5.1283" y="-2.24055" width="28.9149" height="22.1086" filterUnits="userSpaceOnUse" color-interpolation-filters="sRGB">
<feFlood flood-opacity="0" result="BackgroundImageFix"/>
<feColorMatrix in="SourceAlpha" type="matrix" values="0 0 0 0 0 0 0 0 0 0 0 0 0 0 0 0 0 0 127 0" result="hardAlpha"/>
<feOffset dy="-0.307692"/>
<feGaussianBlur stdDeviation="1"/>
<feColorMatrix type="matrix" values="0 0 0 0 0 0 0 0 0 0.0568691 0 0 0 0 0.270805 0 0 0 0.1 0"/>
<feBlend mode="normal" in2="BackgroundImageFix" result="effect1_dropShadow_319_15495"/>
<feBlend mode="normal" in="SourceGraphic" in2="effect1_dropShadow_319_15495" result="shape"/>
</filter>
<filter id="filter1_d_319_15495" x="4.30984" y="-0.0496361" width="14.357" height="21.7591" filterUnits="userSpaceOnUse" color-interpolation-filters="sRGB">
<feFlood flood-opacity="0" result="BackgroundImageFix"/>
<feColorMatrix in="SourceAlpha" type="matrix" values="0 0 0 0 0 0 0 0 0 0 0 0 0 0 0 0 0 0 127 0" result="hardAlpha"/>
<feOffset/>
<feGaussianBlur stdDeviation="1.15385"/>
<feColorMatrix type="matrix" values="0 0 0 0 0 0 0 0 0 0.117216 0 0 0 0 0.0665166 0 0 0 0.2 0"/>
<feBlend mode="normal" in2="BackgroundImageFix" result="effect1_dropShadow_319_15495"/>
<feBlend mode="normal" in="SourceGraphic" in2="effect1_dropShadow_319_15495" result="shape"/>
</filter>
<linearGradient id="paint0_linear_319_15495" x1="38.3514" y1="15.1612" x2="13.7971" y2="-7.88193" gradientUnits="userSpaceOnUse">
<stop stop-color="#00E069"/>
<stop offset="0.500067" stop-color="#00E069"/>
<stop offset="1" stop-color="#336FFF"/>
</linearGradient>
<linearGradient id="paint1_linear_319_15495" x1="25.5014" y1="17.5287" x2="23.5599" y2="3.72869" gradientUnits="userSpaceOnUse">
<stop stop-color="#32CCFE"/>
<stop offset="1" stop-color="#0F23C8"/>
<stop offset="1" stop-color="#0C359E"/>
</linearGradient>
<linearGradient id="paint2_linear_319_15495" x1="14.7714" y1="18.6813" x2="20.2887" y2="4.18259" gradientUnits="userSpaceOnUse">
<stop stop-color="#00FFFD"/>
<stop offset="1" stop-color="#3752FF"/>
</linearGradient>
<linearGradient id="paint3_linear_319_15495" x1="15.357" y1="4.82708" x2="12.6099" y2="-0.820749" gradientUnits="userSpaceOnUse">
<stop stop-color="#00FFA1"/>
<stop offset="1" stop-color="#0AB0FF"/>
</linearGradient>
<linearGradient id="paint4_linear_319_15495" x1="8.39264" y1="4.61464" x2="8.39264" y2="17.7804" gradientUnits="userSpaceOnUse">
<stop stop-color="#00C4C4"/>
<stop offset="1" stop-color="#89FF5A"/>
</linearGradient>
</defs>
</svg>
