<svg width="33" height="36" viewBox="0 0 33 36" fill="none" xmlns="http://www.w3.org/2000/svg">
<g id="&#231;&#188;&#150;&#231;&#187;&#132;">
<g id="&#232;&#183;&#175;&#229;&#190;&#132; 4 + &#232;&#183;&#175;&#229;&#190;&#132; 3&#232;&#146;&#153;&#231;&#137;&#136;">
<path id="&#232;&#146;&#153;&#231;&#137;&#136;" fill-rule="evenodd" clip-rule="evenodd" d="M25.541 14.0856C28.5935 15.8026 28.5935 20.1974 25.541 21.9144L7.19311 32.2351C4.19923 33.9192 0.5 31.7557 0.5 28.3207V7.67931C0.5 4.2443 4.19923 2.08082 7.1931 3.76487L25.541 14.0856Z" fill="url(#paint0_linear_5797_21145)"/>
<mask id="mask0_5797_21145" style="mask-type:luminance" maskUnits="userSpaceOnUse" x="0" y="3" width="28" height="30">
<path id="&#232;&#146;&#153;&#231;&#137;&#136;_2" fill-rule="evenodd" clip-rule="evenodd" d="M25.541 14.0856C28.5935 15.8026 28.5935 20.1974 25.541 21.9144L7.19311 32.2351C4.19923 33.9192 0.5 31.7557 0.5 28.3207V7.67931C0.5 4.2443 4.19923 2.08082 7.1931 3.76487L25.541 14.0856Z" fill="white"/>
</mask>
<g mask="url(#mask0_5797_21145)">
<path id="&#231;&#159;&#169;&#229;&#189;&#162;" fill-rule="evenodd" clip-rule="evenodd" d="M-6.37988 26.1087L27.3293 7.38867L33.4839 17.6424L-0.225237 36.3624L-6.37988 26.1087Z" fill="url(#paint1_linear_5797_21145)"/>
<g id="&#231;&#159;&#169;&#229;&#189;&#162;_2" filter="url(#filter0_d_5797_21145)">
<path fill-rule="evenodd" clip-rule="evenodd" d="M-10.9053 18.427L22.8039 -0.292969L28.9585 9.96077L-4.75063 28.6808L-10.9053 18.427Z" fill="url(#paint2_linear_5797_21145)"/>
</g>
<path id="&#231;&#159;&#169;&#229;&#189;&#162;_3" fill-rule="evenodd" clip-rule="evenodd" d="M-14.8184 11.2012L18.8908 -7.51883L25.0454 2.73491L-8.66371 21.4549L-14.8184 11.2012Z" fill="url(#paint3_linear_5797_21145)"/>
</g>
</g>
<path id="&#229;&#189;&#162;&#231;&#138;&#182;&#231;&#187;&#147;&#229;&#144;&#136;" fill-rule="evenodd" clip-rule="evenodd" d="M2.55847 5.04004C2.24842 5.04004 1.99707 5.29139 1.99707 5.60144V6.99864C1.99707 7.30869 2.24842 7.56004 2.55847 7.56004H2.93274C3.2428 7.56004 3.49415 7.30869 3.49415 6.99864V5.60144C3.49415 5.29139 3.2428 5.04004 2.93274 5.04004H2.55847ZM2.55847 9.72007C2.24842 9.72007 1.99707 9.97142 1.99707 10.2815V11.6787C1.99707 11.9887 2.24842 12.2401 2.55847 12.2401H2.93274C3.2428 12.2401 3.49415 11.9887 3.49415 11.6787V10.2815C3.49415 9.97142 3.2428 9.72007 2.93274 9.72007H2.55847ZM1.99707 14.9614C1.99707 14.6513 2.24842 14.4 2.55847 14.4H2.93274C3.2428 14.4 3.49415 14.6513 3.49415 14.9614V16.3586C3.49415 16.6686 3.2428 16.92 2.93274 16.92H2.55847C2.24842 16.92 1.99707 16.6686 1.99707 16.3586V14.9614ZM2.55847 19.08C2.24842 19.08 1.99707 19.3314 1.99707 19.6414V21.0386C1.99707 21.3487 2.24842 21.6 2.55847 21.6H2.93274C3.2428 21.6 3.49415 21.3487 3.49415 21.0386V19.6414C3.49415 19.3314 3.2428 19.08 2.93274 19.08H2.55847ZM1.99707 24.3214C1.99707 24.0114 2.24842 23.76 2.55847 23.76H2.93274C3.2428 23.76 3.49415 24.0114 3.49415 24.3214V25.7186C3.49415 26.0287 3.2428 26.28 2.93274 26.28H2.55847C2.24842 26.28 1.99707 26.0287 1.99707 25.7186V24.3214ZM2.55847 28.4401C2.24842 28.4401 1.99707 28.6914 1.99707 29.0015V30.3987C1.99707 30.7087 2.24842 30.9601 2.55847 30.9601H2.93274C3.2428 30.9601 3.49415 30.7087 3.49415 30.3987V29.0015C3.49415 28.6914 3.2428 28.4401 2.93274 28.4401H2.55847Z" fill="#00351E"/>
<g id="&#231;&#188;&#150;&#231;&#187;&#132; 3">
<mask id="mask1_5797_21145" style="mask-type:luminance" maskUnits="userSpaceOnUse" x="0" y="3" width="32" height="33">
<path id="&#232;&#146;&#153;&#231;&#137;&#136;_3" fill-rule="evenodd" clip-rule="evenodd" d="M29.0789 16.0756C31.0382 17.1777 31.88 19.5558 30.9321 21.5943C29.1889 25.343 26.2771 30.8735 23.6878 32.33C20.9626 33.8629 11.2673 35.0047 5.31043 35.5808C2.71235 35.832 0.5 33.7765 0.5 31.1663L0.5 7.67931C0.5 4.2443 4.19923 2.08082 7.1931 3.76487L29.0789 16.0756Z" fill="white"/>
</mask>
<g mask="url(#mask1_5797_21145)">
<g id="&#231;&#188;&#150;&#231;&#187;&#132; 2">
<g id="&#229;&#189;&#162;&#231;&#138;&#182;&#231;&#187;&#147;&#229;&#144;&#136;&#229;&#164;&#135;&#228;&#187;&#189; 3" filter="url(#filter1_d_5797_21145)">
<path fill-rule="evenodd" clip-rule="evenodd" d="M8.2778 4.36492C6.84919 3.54331 6.20259 3.17145 4.68848 3.21654C5.75345 3.21654 8.63786 3.89359 8.52666 8.13891V17.6102H5.05357C4.82624 17.6102 4.68676 17.8593 4.80551 18.0531L12.5186 30.6427L20.2317 18.0531C20.3504 17.8593 20.2109 17.6102 19.9836 17.6102H16.5111V10.1486V9.78135C16.5111 9.30229 16.2538 8.86023 15.8369 8.62413C15.3321 8.33819 14.6584 7.95702 14.2359 7.71949C13.7067 7.42202 13.1181 7.09144 12.501 6.74492C11.3552 6.10145 10.1116 5.40303 8.96913 4.75953C8.71798 4.61806 8.48932 4.48656 8.2778 4.36492Z" fill="url(#paint4_linear_5797_21145)"/>
</g>
<g id="&#229;&#189;&#162;&#231;&#138;&#182;&#231;&#187;&#147;&#229;&#144;&#136;&#229;&#164;&#135;&#228;&#187;&#189; 2">
<mask id="path-9-outside-1_5797_21145" maskUnits="userSpaceOnUse" x="3.45898" y="1.59082" width="18" height="31" fill="black">
<rect fill="white" x="3.45898" y="1.59082" width="18" height="31"/>
<path fill-rule="evenodd" clip-rule="evenodd" d="M7.43278 3.77662C6.4286 3.08428 5.66334 2.55668 4.45898 2.59255C5.52396 2.59255 8.63705 3.89387 8.52585 8.13918V17.6105H5.05259C4.82527 17.6105 4.68578 17.8595 4.80454 18.0533L12.5176 30.643L20.2307 18.0533C20.3494 17.8595 20.2099 17.6105 19.9826 17.6105H16.5103V10.1489V9.78163C16.5103 9.30257 16.2529 8.86051 15.8361 8.62441C15.3313 8.33847 14.6576 7.95729 14.2351 7.71977C13.7059 7.4223 13.1173 7.09172 12.5002 6.74521C11.3544 6.10174 10.1107 5.40331 8.96832 4.75981C8.37012 4.42287 7.87797 4.08355 7.43278 3.77662Z"/>
</mask>
<path d="M4.45898 2.59255L4.43918 1.92747L4.45898 3.25791V2.59255ZM7.43278 3.77662L7.05511 4.32441V4.32441L7.43278 3.77662ZM8.52585 8.13918L7.86071 8.12176L7.86048 8.13047V8.13918H8.52585ZM8.52585 17.6105V18.2758H9.19122V17.6105H8.52585ZM4.80454 18.0533L4.23718 18.4009H4.23718L4.80454 18.0533ZM12.5176 30.643L11.9503 30.9905L12.5176 31.9166L13.085 30.9905L12.5176 30.643ZM20.2307 18.0533L20.798 18.4009L20.798 18.4009L20.2307 18.0533ZM16.5103 17.6105H15.8449V18.2758H16.5103V17.6105ZM15.8361 8.62441L16.164 8.04546V8.04546L15.8361 8.62441ZM14.2351 7.71977L13.909 8.29977L14.2351 7.71977ZM12.5002 6.74521L12.1744 7.32535L12.5002 6.74521ZM8.96832 4.75981L9.29486 4.18008H9.29486L8.96832 4.75981ZM4.47879 3.25762C5.43793 3.22905 6.03474 3.62092 7.05511 4.32441L7.81046 3.22882C6.82245 2.54764 5.88874 1.8843 4.43918 1.92747L4.47879 3.25762ZM9.19099 8.15661C9.25139 5.85056 8.42948 4.28122 7.3927 3.29239C6.3883 2.33443 5.18444 1.92718 4.45898 1.92718V3.25791C4.79851 3.25791 5.68367 3.50133 6.47426 4.25536C7.23247 4.97851 7.9115 6.1825 7.86071 8.12176L9.19099 8.15661ZM9.19122 17.6105V8.13918H7.86048V17.6105H9.19122ZM8.52585 16.9451H5.05259V18.2758H8.52585V16.9451ZM5.05259 16.9451C4.30533 16.9451 3.8468 17.7637 4.23718 18.4009L5.37189 17.7057C5.52476 17.9553 5.34521 18.2758 5.05259 18.2758V16.9451ZM4.23718 18.4009L11.9503 30.9905L13.085 30.2954L5.37189 17.7057L4.23718 18.4009ZM13.085 30.9905L20.798 18.4009L19.6633 17.7057L11.9503 30.2954L13.085 30.9905ZM20.798 18.4009C21.1884 17.7637 20.7299 16.9451 19.9826 16.9451V18.2758C19.69 18.2758 19.5105 17.9553 19.6633 17.7057L20.798 18.4009ZM19.9826 16.9451H16.5103V18.2758H19.9826V16.9451ZM15.8449 10.1489V17.6105H17.1756V10.1489H15.8449ZM15.8449 9.78163V10.1489H17.1756V9.78163H15.8449ZM15.5082 9.20336C15.7162 9.32117 15.8449 9.54191 15.8449 9.78163H17.1756C17.1756 9.06322 16.7897 8.39984 16.164 8.04546L15.5082 9.20336ZM13.909 8.29977C14.3305 8.5367 15.0033 8.91736 15.5082 9.20336L16.164 8.04546C15.6593 7.75958 14.9847 7.37789 14.5611 7.13976L13.909 8.29977ZM12.1744 7.32535C12.7915 7.67189 13.38 8.00239 13.909 8.29977L14.5611 7.13976C14.0318 6.84221 13.443 6.51156 12.826 6.16507L12.1744 7.32535ZM8.64177 5.33954C9.78464 5.98328 11.0287 6.68193 12.1744 7.32535L12.826 6.16507C11.6802 5.52155 10.4369 4.82333 9.29486 4.18008L8.64177 5.33954ZM7.05511 4.32441C7.49938 4.63071 8.01416 4.98602 8.64177 5.33954L9.29486 4.18008C8.72609 3.85971 8.25657 3.5364 7.81046 3.22882L7.05511 4.32441Z" fill="#CCFFF0" mask="url(#path-9-outside-1_5797_21145)"/>
</g>
</g>
</g>
</g>
</g>
<defs>
<filter id="filter0_d_5797_21145" x="-14.1053" y="-3.98528" width="46.2643" height="35.3736" filterUnits="userSpaceOnUse" color-interpolation-filters="sRGB">
<feFlood flood-opacity="0" result="BackgroundImageFix"/>
<feColorMatrix in="SourceAlpha" type="matrix" values="0 0 0 0 0 0 0 0 0 0 0 0 0 0 0 0 0 0 127 0" result="hardAlpha"/>
<feOffset dy="-0.492308"/>
<feGaussianBlur stdDeviation="1.6"/>
<feColorMatrix type="matrix" values="0 0 0 0 0 0 0 0 0 0.0568691 0 0 0 0 0.270805 0 0 0 0.1 0"/>
<feBlend mode="normal" in2="BackgroundImageFix" result="effect1_dropShadow_5797_21145"/>
<feBlend mode="normal" in="SourceGraphic" in2="effect1_dropShadow_5797_21145" result="shape"/>
</filter>
<filter id="filter1_d_5797_21145" x="0.996168" y="-0.479418" width="22.9715" height="34.8143" filterUnits="userSpaceOnUse" color-interpolation-filters="sRGB">
<feFlood flood-opacity="0" result="BackgroundImageFix"/>
<feColorMatrix in="SourceAlpha" type="matrix" values="0 0 0 0 0 0 0 0 0 0 0 0 0 0 0 0 0 0 127 0" result="hardAlpha"/>
<feOffset/>
<feGaussianBlur stdDeviation="1.84615"/>
<feColorMatrix type="matrix" values="0 0 0 0 0 0 0 0 0 0.117216 0 0 0 0 0.0665166 0 0 0 0.2 0"/>
<feBlend mode="normal" in2="BackgroundImageFix" result="effect1_dropShadow_5797_21145"/>
<feBlend mode="normal" in="SourceGraphic" in2="effect1_dropShadow_5797_21145" result="shape"/>
</filter>
<linearGradient id="paint0_linear_5797_21145" x1="55.4622" y1="23.858" x2="16.1753" y2="-13.0111" gradientUnits="userSpaceOnUse">
<stop stop-color="#00E069"/>
<stop offset="0.500067" stop-color="#00E069"/>
<stop offset="1" stop-color="#336FFF"/>
</linearGradient>
<linearGradient id="paint1_linear_5797_21145" x1="34.9023" y1="27.6457" x2="31.7958" y2="5.56571" gradientUnits="userSpaceOnUse">
<stop stop-color="#32CCFE"/>
<stop offset="1" stop-color="#0F23C8"/>
<stop offset="1" stop-color="#0C359E"/>
</linearGradient>
<linearGradient id="paint2_linear_5797_21145" x1="17.7343" y1="29.4898" x2="26.562" y2="6.29176" gradientUnits="userSpaceOnUse">
<stop stop-color="#00FFFD"/>
<stop offset="1" stop-color="#3752FF"/>
</linearGradient>
<linearGradient id="paint3_linear_5797_21145" x1="18.6712" y1="7.32352" x2="14.2759" y2="-1.713" gradientUnits="userSpaceOnUse">
<stop stop-color="#00FFA1"/>
<stop offset="1" stop-color="#0AB0FF"/>
</linearGradient>
<linearGradient id="paint4_linear_5797_21145" x1="7.52864" y1="6.98342" x2="7.52864" y2="28.0486" gradientUnits="userSpaceOnUse">
<stop stop-color="#00C4C4"/>
<stop offset="1" stop-color="#89FF5A"/>
</linearGradient>
</defs>
</svg>
