<svg width="17" height="16" viewBox="0 0 17 16" fill="none" xmlns="http://www.w3.org/2000/svg">
<g id="icon/refresh/Light">
<path id="&#229;&#189;&#162;&#231;&#138;&#182;" fill-rule="evenodd" clip-rule="evenodd" d="M13.6978 4.38827C14.4226 5.45254 14.8098 6.7106 14.8088 7.99827V7.99927H15.9198C15.9411 7.96787 15.9816 7.95582 16.0167 7.97042C16.0517 7.98503 16.0717 8.02226 16.0644 8.05954C16.0572 8.09681 16.0247 8.12386 15.9868 8.12427L14.1198 10.9613C14.105 10.9839 14.0798 10.9976 14.0528 10.9976C14.0257 10.9976 14.0005 10.9839 13.9858 10.9613L12.1168 8.12427C12.1 8.09963 12.0983 8.06773 12.1124 8.04147C12.1265 8.01521 12.154 7.99895 12.1838 7.99927H13.2948C13.2967 6.87976 12.912 5.79392 12.2058 4.92527L12.1968 4.91327C11.7138 4.32127 11.0948 3.84827 10.3898 3.54127L10.3528 3.52427C10.2348 3.47427 10.1158 3.43127 9.99377 3.39127L9.89377 3.35627C9.78777 3.32427 9.67777 3.29727 9.56877 3.27227C9.55411 3.26891 9.53935 3.26536 9.52453 3.2618C9.49083 3.2537 9.4568 3.24552 9.42277 3.23927C9.31177 3.21727 9.19877 3.20027 9.08377 3.18727L8.95677 3.16927C7.82035 3.05738 6.68185 3.36075 5.75177 4.02327C5.58749 4.14019 5.38313 4.18625 5.18458 4.15109C4.98603 4.11593 4.80991 4.0025 4.69577 3.83627C4.45623 3.48922 4.53949 3.01417 4.88277 2.76927C5.93822 2.01596 7.20307 1.61206 8.49977 1.61427C8.5154 1.61427 8.53077 1.61554 8.54602 1.6168C8.56102 1.61804 8.57589 1.61927 8.59077 1.61927C8.7577 1.62114 8.92449 1.62948 9.09077 1.64427C9.13788 1.64905 9.18499 1.65569 9.23178 1.66229C9.25352 1.66535 9.2752 1.66841 9.29677 1.67127C9.33207 1.67585 9.36736 1.6797 9.40265 1.68354C9.46736 1.69058 9.53207 1.69762 9.59677 1.70927C9.61527 1.71277 9.63302 1.71727 9.65077 1.72177C9.66852 1.72627 9.68627 1.73077 9.70477 1.73427C9.75777 1.74487 9.81027 1.75746 9.86227 1.76994C9.88386 1.77512 9.90536 1.78028 9.92677 1.78527C10.0599 1.81534 10.192 1.85003 10.3228 1.88927C10.3563 1.89885 10.3888 1.90987 10.4217 1.92104C10.4437 1.92851 10.4659 1.93605 10.4888 1.94327C10.6381 1.99381 10.7858 2.04884 10.9318 2.10827C10.9566 2.12034 10.9816 2.13201 11.0068 2.14327C11.9235 2.54315 12.7308 3.15738 13.3608 3.93427L13.3938 3.97727C13.4898 4.09412 13.5819 4.21419 13.6698 4.33727C13.6751 4.34522 13.6795 4.35402 13.6842 4.36322C13.6883 4.37136 13.6926 4.37981 13.6978 4.38827ZM8.04977 12.8273C9.18466 12.9395 10.3217 12.636 11.2498 11.9733C11.4141 11.8562 11.6186 11.8101 11.8173 11.8455C12.0159 11.8808 12.192 11.9947 12.3058 12.1613C12.5449 12.5079 12.4621 12.9821 12.1198 13.2273C10.8915 14.1047 9.38549 14.5043 7.88377 14.3513L7.75777 14.3333C7.73735 14.3308 7.71695 14.3285 7.69658 14.3261C7.59927 14.3148 7.50252 14.3036 7.40577 14.2863C7.38094 14.2827 7.35711 14.2767 7.33322 14.2706C7.32344 14.2681 7.31365 14.2656 7.30377 14.2633C7.23573 14.2505 7.17026 14.2344 7.10427 14.2183C7.08782 14.2143 7.07133 14.2103 7.05477 14.2063C6.93077 14.1763 6.80777 14.1463 6.68677 14.1103C6.63841 14.0956 6.59113 14.0793 6.54373 14.063C6.52645 14.0571 6.50914 14.0511 6.49177 14.0453C6.35477 13.9983 6.21677 13.9493 6.08377 13.8933L5.96777 13.8413C5.25061 13.5245 4.59984 13.0749 4.04977 12.5163L4.01477 12.4803C3.88877 12.3493 3.76677 12.2183 3.65177 12.0763C3.63428 12.0547 3.61747 12.0324 3.60075 12.0103C3.58879 11.9945 3.57687 11.9787 3.56477 11.9633C3.54505 11.938 3.52513 11.9128 3.5052 11.8876C3.44632 11.8133 3.38731 11.7387 3.33277 11.6603C3.32792 11.6527 3.32394 11.6449 3.31989 11.6369C3.31643 11.6301 3.31292 11.6232 3.30877 11.6163C2.60677 10.5873 2.19277 9.34227 2.19277 7.99827H1.08077C1.05177 7.99827 1.02477 7.98227 1.00977 7.95527C0.994772 7.92827 0.997772 7.89627 1.01377 7.87327L2.88177 5.03527C2.89646 5.01218 2.92192 4.99821 2.94927 4.99821C2.97663 4.99821 3.00209 5.01218 3.01677 5.03527L4.88377 7.87327C4.90055 7.89763 4.9021 7.92939 4.88777 7.95527C4.87397 7.98172 4.84661 7.99829 4.81677 7.99827H3.70477C3.70391 9.09567 4.07432 10.1611 4.75577 11.0213C4.76403 11.0317 4.77211 11.0425 4.78016 11.0533C4.79062 11.0673 4.80103 11.0813 4.81177 11.0943C5.19916 11.5658 5.67169 11.9603 6.20477 12.2573L6.22077 12.2653C6.33972 12.3303 6.46151 12.39 6.58577 12.4443C6.71507 12.5009 6.84687 12.5516 6.98077 12.5963C6.98762 12.5986 6.99445 12.601 7.00126 12.6034C7.04017 12.617 7.07847 12.6304 7.11677 12.6423C7.21216 12.6708 7.30856 12.6958 7.40577 12.7173C7.46605 12.7329 7.52674 12.7469 7.58777 12.7593C7.67499 12.7769 7.76455 12.7891 7.85437 12.8013C7.8665 12.8029 7.87864 12.8046 7.89077 12.8063C7.90999 12.8088 7.92895 12.8115 7.94779 12.8142C7.9819 12.8192 8.01563 12.824 8.04977 12.8273Z" fill="white"/>
</g>
</svg>
