<svg width="136" height="40" viewBox="0 0 136 40" fill="none" xmlns="http://www.w3.org/2000/svg">
<rect x="0.5" y="0.5" width="135" height="39" rx="4.5" fill="black"/>
<rect x="0.5" y="0.5" width="135" height="39" rx="4.5" stroke="#A6A6A6"/>
<path d="M21.375 11.25H29.8125C30.5 11.25 31.0625 11.8125 31.0625 12.5V14.0625C31.0625 14.75 30.5 15.3125 29.8125 15.3125H21.375C20.6875 15.3125 20.125 14.75 20.125 14.0625V12.5C20.125 11.8125 20.6875 11.25 21.375 11.25Z" fill="#BCFFF8"/>
<path d="M32 30.625H12C10.625 30.625 9.5 29.5 9.5 28.125V11.875C9.5 10.5 10.625 9.37497 12 9.37497H19.1875C20.9062 9.84372 20.5625 10.7187 21.6875 11.875L22.4688 13.125H32C33.375 13.125 34.5 14.25 34.5 15.625V28.125C34.5 29.5 33.375 30.625 32 30.625Z" fill="#2F77F1"/>
<path d="M16.991 23.884H14.633L14.255 25H12.644L14.93 18.682H16.712L18.998 25H17.369L16.991 23.884ZM16.595 22.696L15.812 20.383L15.038 22.696H16.595ZM24.5087 20.716C24.5087 21.082 24.4247 21.418 24.2567 21.724C24.0887 22.024 23.8307 22.267 23.4827 22.453C23.1347 22.639 22.7027 22.732 22.1867 22.732H21.2327V25H19.6937V18.682H22.1867C22.6907 18.682 23.1167 18.769 23.4647 18.943C23.8127 19.117 24.0737 19.357 24.2477 19.663C24.4217 19.969 24.5087 20.32 24.5087 20.716ZM22.0697 21.508C22.3637 21.508 22.5827 21.439 22.7267 21.301C22.8707 21.163 22.9427 20.968 22.9427 20.716C22.9427 20.464 22.8707 20.269 22.7267 20.131C22.5827 19.993 22.3637 19.924 22.0697 19.924H21.2327V21.508H22.0697ZM28.973 25L26.849 22.21V25H25.31V18.682H26.849V21.454L28.955 18.682H30.764L28.316 21.778L30.854 25H28.973Z" fill="#BCFFF8"/>
<path d="M42.749 14.5H41.2646L41.2744 13.7334H42.749C43.2568 13.7334 43.68 13.6276 44.0186 13.416C44.3571 13.2012 44.611 12.9017 44.7803 12.5176C44.9528 12.1302 45.0391 11.6777 45.0391 11.1602V10.7256C45.0391 10.3187 44.9902 9.95736 44.8926 9.6416C44.7949 9.32259 44.6517 9.05404 44.4629 8.83594C44.2741 8.61458 44.043 8.44694 43.7695 8.33301C43.4993 8.21908 43.1885 8.16211 42.8369 8.16211H41.2354V7.39062H42.8369C43.3024 7.39062 43.7272 7.46875 44.1113 7.625C44.4954 7.77799 44.8258 8.00098 45.1025 8.29395C45.3825 8.58366 45.5973 8.93522 45.7471 9.34863C45.8968 9.75879 45.9717 10.221 45.9717 10.7354V11.1602C45.9717 11.6745 45.8968 12.1383 45.7471 12.5518C45.5973 12.9619 45.3809 13.3118 45.0977 13.6016C44.8177 13.8913 44.4792 14.1143 44.082 14.2705C43.6882 14.4235 43.2438 14.5 42.749 14.5ZM41.7676 7.39062V14.5H40.8252V7.39062H41.7676ZM47.0117 11.917V11.8047C47.0117 11.4238 47.0671 11.0706 47.1777 10.7451C47.2884 10.4163 47.4479 10.1315 47.6562 9.89062C47.8646 9.64648 48.1169 9.45768 48.4131 9.32422C48.7093 9.1875 49.0413 9.11914 49.4092 9.11914C49.7803 9.11914 50.1139 9.1875 50.4102 9.32422C50.7096 9.45768 50.9635 9.64648 51.1719 9.89062C51.3835 10.1315 51.5446 10.4163 51.6553 10.7451C51.766 11.0706 51.8213 11.4238 51.8213 11.8047V11.917C51.8213 12.2979 51.766 12.651 51.6553 12.9766C51.5446 13.3021 51.3835 13.5869 51.1719 13.8311C50.9635 14.0719 50.7113 14.2607 50.415 14.3975C50.1221 14.5309 49.79 14.5977 49.4189 14.5977C49.0479 14.5977 48.7142 14.5309 48.418 14.3975C48.1217 14.2607 47.8678 14.0719 47.6562 13.8311C47.4479 13.5869 47.2884 13.3021 47.1777 12.9766C47.0671 12.651 47.0117 12.2979 47.0117 11.917ZM47.915 11.8047V11.917C47.915 12.1807 47.946 12.4297 48.0078 12.6641C48.0697 12.8952 48.1624 13.1003 48.2861 13.2793C48.4131 13.4583 48.571 13.5999 48.7598 13.7041C48.9486 13.805 49.1683 13.8555 49.4189 13.8555C49.6663 13.8555 49.8828 13.805 50.0684 13.7041C50.2572 13.5999 50.4134 13.4583 50.5371 13.2793C50.6608 13.1003 50.7536 12.8952 50.8154 12.6641C50.8805 12.4297 50.9131 12.1807 50.9131 11.917V11.8047C50.9131 11.5443 50.8805 11.2985 50.8154 11.0674C50.7536 10.833 50.6592 10.6263 50.5322 10.4473C50.4085 10.265 50.2523 10.1217 50.0635 10.0176C49.8779 9.91341 49.6598 9.86133 49.4092 9.86133C49.1618 9.86133 48.9437 9.91341 48.7549 10.0176C48.5693 10.1217 48.4131 10.265 48.2861 10.4473C48.1624 10.6263 48.0697 10.833 48.0078 11.0674C47.946 11.2985 47.915 11.5443 47.915 11.8047ZM54.292 13.5625L55.6494 9.2168H56.2451L56.1279 10.0811L54.7461 14.5H54.165L54.292 13.5625ZM53.3789 9.2168L54.5361 13.6113L54.6191 14.5H54.0088L52.4756 9.2168H53.3789ZM57.5439 13.5771L58.6475 9.2168H59.5459L58.0127 14.5H57.4072L57.5439 13.5771ZM56.377 9.2168L57.7051 13.4893L57.8564 14.5H57.2803L55.8594 10.0713L55.7422 9.2168H56.377ZM61.377 10.3447V14.5H60.4736V9.2168H61.3281L61.377 10.3447ZM61.1621 11.6582L60.7861 11.6436C60.7894 11.2822 60.8431 10.9486 60.9473 10.6426C61.0514 10.3333 61.1979 10.0648 61.3867 9.83691C61.5755 9.60905 61.8001 9.43327 62.0605 9.30957C62.3242 9.18262 62.6156 9.11914 62.9346 9.11914C63.195 9.11914 63.4294 9.15495 63.6377 9.22656C63.846 9.29492 64.0234 9.4056 64.1699 9.55859C64.3197 9.71159 64.4336 9.91016 64.5117 10.1543C64.5898 10.3952 64.6289 10.6898 64.6289 11.0381V14.5H63.7207V11.0283C63.7207 10.7516 63.68 10.5303 63.5986 10.3643C63.5173 10.195 63.3984 10.0729 63.2422 9.99805C63.0859 9.91992 62.8939 9.88086 62.666 9.88086C62.4414 9.88086 62.2363 9.92806 62.0508 10.0225C61.8685 10.1169 61.7106 10.2471 61.5771 10.4131C61.4469 10.5791 61.3444 10.7695 61.2695 10.9844C61.1979 11.196 61.1621 11.4206 61.1621 11.6582ZM66.9824 7V14.5H66.0742V7H66.9824ZM68.1934 11.917V11.8047C68.1934 11.4238 68.2487 11.0706 68.3594 10.7451C68.4701 10.4163 68.6296 10.1315 68.8379 9.89062C69.0462 9.64648 69.2985 9.45768 69.5947 9.32422C69.891 9.1875 70.223 9.11914 70.5908 9.11914C70.9619 9.11914 71.2956 9.1875 71.5918 9.32422C71.8913 9.45768 72.1452 9.64648 72.3535 9.89062C72.5651 10.1315 72.7262 10.4163 72.8369 10.7451C72.9476 11.0706 73.0029 11.4238 73.0029 11.8047V11.917C73.0029 12.2979 72.9476 12.651 72.8369 12.9766C72.7262 13.3021 72.5651 13.5869 72.3535 13.8311C72.1452 14.0719 71.8929 14.2607 71.5967 14.3975C71.3037 14.5309 70.9717 14.5977 70.6006 14.5977C70.2295 14.5977 69.8958 14.5309 69.5996 14.3975C69.3034 14.2607 69.0495 14.0719 68.8379 13.8311C68.6296 13.5869 68.4701 13.3021 68.3594 12.9766C68.2487 12.651 68.1934 12.2979 68.1934 11.917ZM69.0967 11.8047V11.917C69.0967 12.1807 69.1276 12.4297 69.1895 12.6641C69.2513 12.8952 69.3441 13.1003 69.4678 13.2793C69.5947 13.4583 69.7526 13.5999 69.9414 13.7041C70.1302 13.805 70.3499 13.8555 70.6006 13.8555C70.848 13.8555 71.0645 13.805 71.25 13.7041C71.4388 13.5999 71.5951 13.4583 71.7188 13.2793C71.8424 13.1003 71.9352 12.8952 71.9971 12.6641C72.0622 12.4297 72.0947 12.1807 72.0947 11.917V11.8047C72.0947 11.5443 72.0622 11.2985 71.9971 11.0674C71.9352 10.833 71.8408 10.6263 71.7139 10.4473C71.5902 10.265 71.4339 10.1217 71.2451 10.0176C71.0596 9.91341 70.8415 9.86133 70.5908 9.86133C70.3434 9.86133 70.1253 9.91341 69.9365 10.0176C69.751 10.1217 69.5947 10.265 69.4678 10.4473C69.3441 10.6263 69.2513 10.833 69.1895 11.0674C69.1276 11.2985 69.0967 11.5443 69.0967 11.8047ZM77.251 13.5967V10.877C77.251 10.6686 77.2087 10.488 77.124 10.335C77.0426 10.1787 76.9189 10.0583 76.7529 9.97363C76.5869 9.889 76.3818 9.84668 76.1377 9.84668C75.9098 9.84668 75.7096 9.88574 75.5371 9.96387C75.3678 10.042 75.2344 10.1445 75.1367 10.2715C75.0423 10.3984 74.9951 10.5352 74.9951 10.6816H74.0918C74.0918 10.4928 74.1406 10.3057 74.2383 10.1201C74.3359 9.93457 74.4759 9.76693 74.6582 9.61719C74.8438 9.46419 75.0651 9.34375 75.3223 9.25586C75.5827 9.16471 75.8724 9.11914 76.1914 9.11914C76.5755 9.11914 76.9141 9.18424 77.207 9.31445C77.5033 9.44466 77.7344 9.6416 77.9004 9.90527C78.0697 10.1657 78.1543 10.4928 78.1543 10.8867V13.3477C78.1543 13.5234 78.1689 13.7106 78.1982 13.9092C78.2308 14.1077 78.278 14.2786 78.3398 14.4219V14.5H77.3975C77.3519 14.3958 77.3161 14.2575 77.29 14.085C77.264 13.9092 77.251 13.7464 77.251 13.5967ZM77.4072 11.2969L77.417 11.9316H76.5039C76.2467 11.9316 76.0173 11.9528 75.8154 11.9951C75.6136 12.0342 75.4443 12.0944 75.3076 12.1758C75.1709 12.2572 75.0667 12.3597 74.9951 12.4834C74.9235 12.6038 74.8877 12.7454 74.8877 12.9082C74.8877 13.0742 74.9251 13.2256 75 13.3623C75.0749 13.499 75.1872 13.6081 75.3369 13.6895C75.4899 13.7676 75.6771 13.8066 75.8984 13.8066C76.1751 13.8066 76.4193 13.748 76.6309 13.6309C76.8424 13.5137 77.0101 13.3704 77.1338 13.2012C77.2607 13.0319 77.3291 12.8675 77.3389 12.708L77.7246 13.1426C77.7018 13.2793 77.64 13.4307 77.5391 13.5967C77.4382 13.7627 77.3031 13.9222 77.1338 14.0752C76.9678 14.2249 76.7692 14.3503 76.5381 14.4512C76.3102 14.5488 76.0531 14.5977 75.7666 14.5977C75.4085 14.5977 75.0944 14.5277 74.8242 14.3877C74.5573 14.2477 74.349 14.0605 74.1992 13.8262C74.0527 13.5885 73.9795 13.3232 73.9795 13.0303C73.9795 12.7471 74.0348 12.498 74.1455 12.2832C74.2562 12.0651 74.4157 11.8844 74.624 11.7412C74.8324 11.5947 75.083 11.484 75.376 11.4092C75.6689 11.3343 75.9961 11.2969 76.3574 11.2969H77.4072ZM82.9053 13.4746V7H83.8135V14.5H82.9834L82.9053 13.4746ZM79.3506 11.917V11.8145C79.3506 11.4108 79.3994 11.0446 79.4971 10.7158C79.598 10.3838 79.7396 10.099 79.9219 9.86133C80.1074 9.6237 80.3271 9.44141 80.5811 9.31445C80.8382 9.18424 81.1247 9.11914 81.4404 9.11914C81.7725 9.11914 82.0622 9.17773 82.3096 9.29492C82.5602 9.40885 82.7718 9.5765 82.9443 9.79785C83.1201 10.016 83.2585 10.2796 83.3594 10.5889C83.4603 10.8981 83.5303 11.248 83.5693 11.6387V12.0879C83.5335 12.4753 83.4635 12.8236 83.3594 13.1328C83.2585 13.4421 83.1201 13.7057 82.9443 13.9238C82.7718 14.1419 82.5602 14.3096 82.3096 14.4268C82.0589 14.5407 81.766 14.5977 81.4307 14.5977C81.1214 14.5977 80.8382 14.5309 80.5811 14.3975C80.3271 14.264 80.1074 14.0768 79.9219 13.8359C79.7396 13.5951 79.598 13.3118 79.4971 12.9863C79.3994 12.6576 79.3506 12.3011 79.3506 11.917ZM80.2588 11.8145V11.917C80.2588 12.1807 80.2848 12.4281 80.3369 12.6592C80.3923 12.8903 80.4769 13.0938 80.5908 13.2695C80.7048 13.4453 80.8496 13.5837 81.0254 13.6846C81.2012 13.7822 81.4111 13.8311 81.6553 13.8311C81.9548 13.8311 82.2005 13.7676 82.3926 13.6406C82.5879 13.5137 82.7441 13.346 82.8613 13.1377C82.9785 12.9294 83.0697 12.7031 83.1348 12.459V11.2822C83.0957 11.1032 83.0387 10.9307 82.9639 10.7646C82.8923 10.5954 82.7979 10.4456 82.6807 10.3154C82.5667 10.182 82.4251 10.0762 82.2559 9.99805C82.0898 9.91992 81.8929 9.88086 81.665 9.88086C81.4176 9.88086 81.2044 9.93294 81.0254 10.0371C80.8496 10.138 80.7048 10.278 80.5908 10.457C80.4769 10.6328 80.3923 10.8379 80.3369 11.0723C80.2848 11.3034 80.2588 11.5508 80.2588 11.8145Z" fill="white"/>
<path d="M45.6406 21.0703L42.5469 30.5H40.0547L44.2812 19.125H45.8672L45.6406 21.0703ZM48.2109 30.5L45.1094 21.0703L44.8594 19.125H46.4609L50.7109 30.5H48.2109ZM48.0703 26.2656V28.1016H42.0625V26.2656H48.0703ZM56.1953 26.4453H53.2969V24.6172H56.1953C56.6432 24.6172 57.0078 24.5443 57.2891 24.3984C57.5703 24.2474 57.776 24.0391 57.9062 23.7734C58.0365 23.5078 58.1016 23.2083 58.1016 22.875C58.1016 22.5365 58.0365 22.2214 57.9062 21.9297C57.776 21.638 57.5703 21.4036 57.2891 21.2266C57.0078 21.0495 56.6432 20.9609 56.1953 20.9609H54.1094V30.5H51.7656V19.125H56.1953C57.0859 19.125 57.849 19.2865 58.4844 19.6094C59.125 19.9271 59.6146 20.3672 59.9531 20.9297C60.2917 21.4922 60.4609 22.1354 60.4609 22.8594C60.4609 23.5938 60.2917 24.2292 59.9531 24.7656C59.6146 25.3021 59.125 25.7161 58.4844 26.0078C57.849 26.2995 57.0859 26.4453 56.1953 26.4453ZM64.4219 19.125V30.5H62.0781V19.125H64.4219ZM71.2344 19.125L66.7266 24.7422L64.125 27.5391L63.7031 25.3203L65.4609 22.9141L68.3594 19.125H71.2344ZM68.5703 30.5L65.2188 25.2422L66.9531 23.7891L71.3438 30.5H68.5703ZM78.9062 30.5H76.6484V21.6641C76.6484 20.9453 76.7943 20.3385 77.0859 19.8438C77.3828 19.349 77.8047 18.974 78.3516 18.7188C78.9036 18.4635 79.5703 18.3359 80.3516 18.3359C80.7943 18.3359 81.224 18.3802 81.6406 18.4688C82.0573 18.5521 82.487 18.6615 82.9297 18.7969L82.6016 20.6016C82.3151 20.513 82.0078 20.4297 81.6797 20.3516C81.3516 20.2734 80.9557 20.2344 80.4922 20.2344C79.9714 20.2344 79.5755 20.3568 79.3047 20.6016C79.0391 20.8411 78.9062 21.1953 78.9062 21.6641V30.5ZM80.5859 22.0469V23.6406H75.3906V22.0469H80.5859ZM83.9766 22.0469V30.5H81.7188V22.0469H83.9766ZM88.2344 18.5V30.5H85.9766V18.5H88.2344ZM93.9844 30.6562C93.3281 30.6562 92.7396 30.5521 92.2188 30.3438C91.6979 30.1302 91.2552 29.8359 90.8906 29.4609C90.5312 29.0859 90.2552 28.651 90.0625 28.1562C89.8698 27.6562 89.7734 27.125 89.7734 26.5625V26.25C89.7734 25.6094 89.8646 25.0234 90.0469 24.4922C90.2292 23.9609 90.4896 23.5 90.8281 23.1094C91.1719 22.7188 91.5885 22.4193 92.0781 22.2109C92.5677 21.9974 93.1198 21.8906 93.7344 21.8906C94.3333 21.8906 94.8646 21.9896 95.3281 22.1875C95.7917 22.3854 96.1797 22.6667 96.4922 23.0312C96.8099 23.3958 97.0495 23.8333 97.2109 24.3438C97.3724 24.849 97.4531 25.4115 97.4531 26.0312V26.9688H90.7344V25.4688H95.2422V25.2969C95.2422 24.9844 95.1849 24.7057 95.0703 24.4609C94.9609 24.2109 94.7943 24.013 94.5703 23.8672C94.3464 23.7214 94.0599 23.6484 93.7109 23.6484C93.4141 23.6484 93.1589 23.7135 92.9453 23.8438C92.7318 23.974 92.5573 24.1562 92.4219 24.3906C92.2917 24.625 92.1927 24.901 92.125 25.2188C92.0625 25.5312 92.0312 25.875 92.0312 26.25V26.5625C92.0312 26.901 92.0781 27.2135 92.1719 27.5C92.2708 27.7865 92.4089 28.0339 92.5859 28.2422C92.7682 28.4505 92.987 28.612 93.2422 28.7266C93.5026 28.8411 93.7969 28.8984 94.125 28.8984C94.5312 28.8984 94.9089 28.8203 95.2578 28.6641C95.612 28.5026 95.9167 28.2604 96.1719 27.9375L97.2656 29.125C97.0885 29.3802 96.8464 29.625 96.5391 29.8594C96.237 30.0938 95.8724 30.2865 95.4453 30.4375C95.0182 30.5833 94.5312 30.6562 93.9844 30.6562Z" fill="white"/>
</svg>
